<svg fill="none" height="35.968" viewBox="-0.162 -0.858 5.439 5.488" width="40" xmlns="http://www.w3.org/2000/svg"><path d="M4.863 1.416c-.106.662-.442 1.265-.951 1.701s-1.155.679-1.825.684a2.042 2.042 0 0 1-.406-.025A1.244 1.244 0 0 1 .647 2.604a1.208 1.208 0 0 1 .354-.844 1.207 1.207 0 0 1 1.694-.012 1.208 1.208 0 0 1 .366.839c.005.2-.082.376-.26.381-.19 0-.28-.136-.28-.319V2.14a.312.312 0 0 0-.309-.312h-.425a.742.742 0 0 0-.626.335.742.742 0 0 0 .505 1.14.742.742 0 0 0 .669-.239l.015-.022.015.025a.525.525 0 0 0 .448.213.592.592 0 0 0 .548-.619 1.61 1.61 0 0 0-.044-.393 1.507 1.507 0 0 0-.592-.903 1.506 1.506 0 0 0-2.004.22 1.507 1.507 0 0 0-.383 1.01 1.526 1.526 0 0 0 .44 1.053 1.525 1.525 0 0 0 1.047.454s.112.01.238.007a3.215 3.215 0 0 0 1.724-.514c.007-.005.015.005.01.012a2.531 2.531 0 0 1-1.972.806A1.779 1.779 0 0 1 .53 3.887a1.779 1.779 0 0 1-.516-1.299 1.842 1.842 0 0 1 .74-1.475A1.803 1.803 0 0 1 1.818.762h.572A1.61 1.61 0 0 0 3.578.237.022.022 0 0 1 3.59.23a.023.023 0 0 1 .024.011c.002.004.004.009.003.014a1.615 1.615 0 0 1-.25.722.022.022 0 0 0 .002.024.022.022 0 0 0 .023.008A1.731 1.731 0 0 0 4.596.017a.057.057 0 0 1 .011-.011.03.03 0 0 1 .03 0 .03.03 0 0 1 .011.011 2.194 2.194 0 0 1 .215 1.399zm-3.039.718a.445.445 0 0 0-.437.532.445.445 0 0 0 .35.35.445.445 0 0 0 .532-.437v-.416a.032.032 0 0 0-.03-.03z" fill="#702af7"/></svg>