<svg fill="none" height="50" viewBox="4.098 3.072 15.152 17.211" width="50" xmlns="http://www.w3.org/2000/svg"><path d="M19.251 8.16c0-.285-.061-.542-.187-.756a1.428 1.428 0 0 0-.546-.533c-2.017-1.163-4.037-2.325-6.054-3.487-.546-.313-1.069-.303-1.611.014-.802.472-4.827 2.778-6.022 3.473-.495.285-.733.723-.733 1.293v7.019c0 .28.061.528.177.743.122.219.308.406.556.551 1.2.696 5.219 2.997 6.022 3.473.542.318 1.069.332 1.611.014 2.017-1.167 4.037-2.325 6.054-3.487a1.408 1.408 0 0 0 .556-.551 1.533 1.533 0 0 0 .177-.743z" fill="#9a4993"/><path d="m11.693 11.647-7.426 4.275c.122.219.308.406.556.551 1.2.696 5.219 2.997 6.022 3.473.542.318 1.069.332 1.611.014 2.017-1.167 4.037-2.325 6.054-3.487a1.408 1.408 0 0 0 .556-.551z" fill="#6a1577"/><path d="M9.495 12.912a2.508 2.508 0 0 0 2.175 1.265 2.5 2.5 0 0 0 2.185-1.279l-2.162-1.251z" fill="#6a1577"/><path d="M19.251 8.16c0-.285-.061-.542-.187-.756l-7.371 4.243 7.38 4.276a1.533 1.533 0 0 0 .177-.743z" fill="#813084"/><g fill="#fff"><path d="M13.855 12.898a2.508 2.508 0 0 1-2.185 1.279 2.497 2.497 0 0 1-2.175-1.265 2.504 2.504 0 0 1 4.341-2.498l2.189-1.26a5.037 5.037 0 0 0-4.36-2.516 5.032 5.032 0 1 0 .005 10.064 5.037 5.037 0 0 0 4.374-2.539zm2.768-2.418h-.499v2.413h.499zm1.107 0h-.499v2.413h.499z"/><path d="M18.135 10.886h-2.413v.499h2.413zm0 1.102h-2.413v.499h2.413z"/></g></svg>