<svg xmlns="http://www.w3.org/2000/svg" viewBox="0 0 45 45" width="45" height="45"><path d="M45 22.5A22.5 22.5 0 0 1 22.5 45 22.5 22.5 0 0 1 0 22.5a22.5 22.5 0 0 1 45 0z" style="fill:#5c2d91"/><path d="M6.905 6.329a22.5 22.5 0 1 0 31.767 31.767Z" style="opacity:.1;fill:#fff"/><path d="M5.204 26.192a.95.95 0 0 1-.704-.296.97.97 0 0 1-.288-.704.984.984 0 0 1 .288-.704.942.942 0 0 1 .704-.303.963.963 0 0 1 .704.303.978.978 0 0 1 .295.704.963.963 0 0 1-.295.704.97.97 0 0 1-.704.295Zm13.971-.176h-1.842l-6.588-10.224a4.219 4.219 0 0 1-.408-.801h-.056a13.162 13.162 0 0 1 .07 1.758v9.267H8.854V13.197h1.947l6.413 10.041q.401.625.52.858h.034a13.557 13.557 0 0 1-.092-1.884v-9.015h1.497Zm10.138 0H22.5V13.197h6.496v1.357h-4.963v4.262h4.626v1.35h-4.626v4.443h5.288Zm10.062-11.461h-3.726v11.461h-1.497V14.555h-3.684v-1.357h8.907Z" style="fill:#fff"/><path d="M18.366 34.734a3.467 3.467 0 0 1-1.631.345 2.63 2.63 0 0 1-2.018-.808 2.995 2.995 0 0 1-.759-2.109 3.136 3.136 0 0 1 .85-2.292 2.896 2.896 0 0 1 2.166-.871 3.467 3.467 0 0 1 1.407.246v.704a2.813 2.813 0 0 0-1.407-.351 2.151 2.151 0 0 0-1.653.704 2.559 2.559 0 0 0-.633 1.814 2.441 2.441 0 0 0 .591 1.722 2.011 2.011 0 0 0 1.554.641 2.911 2.911 0 0 0 1.541-.394Zm2.876.345a1.955 1.955 0 0 1-1.497-.625 2.187 2.187 0 0 1-.555-1.568 2.279 2.279 0 0 1 .583-1.659 2.109 2.109 0 0 1 1.568-.597 1.892 1.892 0 0 1 1.47.583 2.306 2.306 0 0 1 .528 1.609 2.264 2.264 0 0 1-.57 1.617 1.996 1.996 0 0 1-1.526.641Zm.05-3.846a1.287 1.287 0 0 0-1.026.443 1.821 1.821 0 0 0-.38 1.224 1.722 1.722 0 0 0 .38 1.181 1.3 1.3 0 0 0 1.026.436 1.238 1.238 0 0 0 1.005-.421 1.842 1.842 0 0 0 .351-1.209 1.87 1.87 0 0 0-.351-1.217 1.23 1.23 0 0 0-1.005-.436Zm5.328.21a.83.83 0 0 0-.513-.133.866.866 0 0 0-.704.408 1.884 1.884 0 0 0-.288 1.112v2.151h-.704v-4.219h.704v.88a1.476 1.476 0 0 1 .443-.704 1.005 1.005 0 0 1 .661-.246 1.104 1.104 0 0 1 .401.056Zm4.121 1.603h-2.975a1.575 1.575 0 0 0 .358 1.083 1.308 1.308 0 0 0 .999.38 2.109 2.109 0 0 0 1.308-.471v.633a2.446 2.446 0 0 1-1.47.401 1.787 1.787 0 0 1-1.407-.576 2.355 2.355 0 0 1-.513-1.617 2.306 2.306 0 0 1 .555-1.604 1.793 1.793 0 0 1 1.407-.618 1.589 1.589 0 0 1 1.28.534 2.236 2.236 0 0 1 .45 1.491Zm-.704-.57a1.407 1.407 0 0 0-.282-.907.963.963 0 0 0-.774-.324 1.091 1.091 0 0 0-.808.345 1.554 1.554 0 0 0-.416.893Z" style="fill:#f2f2f2"/></svg>